<?xml version="1.0"?>
<svg xmlns="http://www.w3.org/2000/svg" xmlns:xlink="http://www.w3.org/1999/xlink" xmlns:svgjs="http://svgjs.com/svgjs" version="1.1" width="512" height="512" x="0" y="0" viewBox="0 0 348.491 348.491" style="enable-background:new 0 0 512 512" xml:space="preserve" class=""><g>
<g xmlns="http://www.w3.org/2000/svg" id="XMLID_617_">
	<path id="XMLID_619_" d="M334.241,28.174c-8.757-4.617-19.361-4-27.54,1.586L125.586,153.723   c-6.479,4.434-10.365,11.773-10.395,19.639c-0.023,7.848,3.825,15.219,10.28,19.697l181.098,125.566   c8.165,5.662,18.799,6.322,27.602,1.707c8.803-4.602,14.32-13.711,14.32-23.654V51.797   C348.491,41.902,343.004,32.809,334.241,28.174z" fill="#ffffff" data-original="#000000" style="" class=""/>
	<path id="XMLID_618_" d="M31.518,14.524C14.112,14.524,0,28.637,0,46.043v256.406c0,17.406,14.112,31.518,31.518,31.518   c17.406,0,31.518-14.111,31.518-31.518V46.043C63.036,28.637,48.924,14.524,31.518,14.524z" fill="#ffffff" data-original="#000000" style="" class=""/>
</g>
<g xmlns="http://www.w3.org/2000/svg">
</g>
<g xmlns="http://www.w3.org/2000/svg">
</g>
<g xmlns="http://www.w3.org/2000/svg">
</g>
<g xmlns="http://www.w3.org/2000/svg">
</g>
<g xmlns="http://www.w3.org/2000/svg">
</g>
<g xmlns="http://www.w3.org/2000/svg">
</g>
<g xmlns="http://www.w3.org/2000/svg">
</g>
<g xmlns="http://www.w3.org/2000/svg">
</g>
<g xmlns="http://www.w3.org/2000/svg">
</g>
<g xmlns="http://www.w3.org/2000/svg">
</g>
<g xmlns="http://www.w3.org/2000/svg">
</g>
<g xmlns="http://www.w3.org/2000/svg">
</g>
<g xmlns="http://www.w3.org/2000/svg">
</g>
<g xmlns="http://www.w3.org/2000/svg">
</g>
<g xmlns="http://www.w3.org/2000/svg">
</g>
</g></svg>
