<?xml version="1.0"?>
<svg xmlns="http://www.w3.org/2000/svg" xmlns:xlink="http://www.w3.org/1999/xlink" xmlns:svgjs="http://svgjs.com/svgjs" version="1.1" width="512" height="512" x="0" y="0" viewBox="0 0 469.333 469.333" style="enable-background:new 0 0 512 512" xml:space="preserve"><g>
<g xmlns="http://www.w3.org/2000/svg">
	<g>
		<g>
			<path d="M160,0H10.667C4.771,0,0,4.771,0,10.667V160c0,5.896,4.771,10.667,10.667,10.667H32c5.896,0,10.667-4.771,10.667-10.667     V42.667H160c5.896,0,10.667-4.771,10.667-10.667V10.667C170.667,4.771,165.896,0,160,0z" fill="#ffffff" data-original="#000000" style=""/>
			<path d="M458.667,0H309.333c-5.896,0-10.667,4.771-10.667,10.667V32c0,5.896,4.771,10.667,10.667,10.667h117.333V160     c0,5.896,4.771,10.667,10.667,10.667h21.333c5.896,0,10.667-4.771,10.667-10.667V10.667C469.333,4.771,464.563,0,458.667,0z" fill="#ffffff" data-original="#000000" style=""/>
			<path d="M458.667,298.667h-21.333c-5.896,0-10.667,4.771-10.667,10.667v117.333H309.333c-5.896,0-10.667,4.771-10.667,10.667     v21.333c0,5.896,4.771,10.667,10.667,10.667h149.333c5.896,0,10.667-4.771,10.667-10.667V309.333     C469.333,303.437,464.563,298.667,458.667,298.667z" fill="#ffffff" data-original="#000000" style=""/>
			<path d="M160,426.667H42.667V309.333c0-5.896-4.771-10.667-10.667-10.667H10.667C4.771,298.667,0,303.437,0,309.333v149.333     c0,5.896,4.771,10.667,10.667,10.667H160c5.896,0,10.667-4.771,10.667-10.667v-21.333     C170.667,431.438,165.896,426.667,160,426.667z" fill="#ffffff" data-original="#000000" style=""/>
		</g>
	</g>
</g>
<g xmlns="http://www.w3.org/2000/svg">
</g>
<g xmlns="http://www.w3.org/2000/svg">
</g>
<g xmlns="http://www.w3.org/2000/svg">
</g>
<g xmlns="http://www.w3.org/2000/svg">
</g>
<g xmlns="http://www.w3.org/2000/svg">
</g>
<g xmlns="http://www.w3.org/2000/svg">
</g>
<g xmlns="http://www.w3.org/2000/svg">
</g>
<g xmlns="http://www.w3.org/2000/svg">
</g>
<g xmlns="http://www.w3.org/2000/svg">
</g>
<g xmlns="http://www.w3.org/2000/svg">
</g>
<g xmlns="http://www.w3.org/2000/svg">
</g>
<g xmlns="http://www.w3.org/2000/svg">
</g>
<g xmlns="http://www.w3.org/2000/svg">
</g>
<g xmlns="http://www.w3.org/2000/svg">
</g>
<g xmlns="http://www.w3.org/2000/svg">
</g>
</g></svg>
