<?xml version="1.0"?>
<svg xmlns="http://www.w3.org/2000/svg" xmlns:xlink="http://www.w3.org/1999/xlink" xmlns:svgjs="http://svgjs.com/svgjs" version="1.1" width="512" height="512" x="0" y="0" viewBox="0 0 47.607 47.607" style="enable-background:new 0 0 512 512" xml:space="preserve" class=""><g>
<g xmlns="http://www.w3.org/2000/svg">
	<path d="M17.991,40.976c0,3.662-2.969,6.631-6.631,6.631l0,0c-3.662,0-6.631-2.969-6.631-6.631V6.631C4.729,2.969,7.698,0,11.36,0   l0,0c3.662,0,6.631,2.969,6.631,6.631V40.976z" fill="#ffffff" data-original="#000000" style=""/>
	<path d="M42.877,40.976c0,3.662-2.969,6.631-6.631,6.631l0,0c-3.662,0-6.631-2.969-6.631-6.631V6.631   C29.616,2.969,32.585,0,36.246,0l0,0c3.662,0,6.631,2.969,6.631,6.631V40.976z" fill="#ffffff" data-original="#000000" style=""/>
</g>
<g xmlns="http://www.w3.org/2000/svg">
</g>
<g xmlns="http://www.w3.org/2000/svg">
</g>
<g xmlns="http://www.w3.org/2000/svg">
</g>
<g xmlns="http://www.w3.org/2000/svg">
</g>
<g xmlns="http://www.w3.org/2000/svg">
</g>
<g xmlns="http://www.w3.org/2000/svg">
</g>
<g xmlns="http://www.w3.org/2000/svg">
</g>
<g xmlns="http://www.w3.org/2000/svg">
</g>
<g xmlns="http://www.w3.org/2000/svg">
</g>
<g xmlns="http://www.w3.org/2000/svg">
</g>
<g xmlns="http://www.w3.org/2000/svg">
</g>
<g xmlns="http://www.w3.org/2000/svg">
</g>
<g xmlns="http://www.w3.org/2000/svg">
</g>
<g xmlns="http://www.w3.org/2000/svg">
</g>
<g xmlns="http://www.w3.org/2000/svg">
</g>
</g></svg>
